<?xml version="1.0" encoding="iso-8859-1"?>
<!-- Uploaded to: SVG Repo, www.svgrepo.com, Generator: SVG Repo Mixer Tools -->
<svg version="1.1" id="Layer_1" xmlns="http://www.w3.org/2000/svg" xmlns:xlink="http://www.w3.org/1999/xlink" 
	 viewBox="0 0 392.663 392.663" xml:space="preserve">
<path style="fill:#FFFFFF;" d="M370.004,32.582c0-6.012-4.849-10.925-10.925-10.925H33.39c-5.947,0-10.925,4.848-10.925,10.925
	v215.531h347.41V32.582H370.004z"/>
<path style="fill:#FFC10D;" d="M22.594,312.824c0,5.948,4.848,10.925,10.925,10.925h325.689c6.012,0,10.925-4.848,10.925-10.925
	v-42.99H22.594V312.824z"/>
<rect x="44.315" y="43.248" style="fill:#56ACE0;" width="303.968" height="204.865"/>
<path style="fill:#194F82;" d="M105.988,91.152c11.119,0,20.234,9.051,20.234,20.234c0,6.012,4.848,10.925,10.925,10.925
	c6.077,0,10.925-4.848,10.925-10.925c0-19.394-13.188-35.62-31.095-40.469v-9.503c0-6.012-4.848-10.925-10.925-10.925
	c-6.077,0-10.925,4.848-10.925,10.925v9.503c-17.842,4.784-31.095,21.075-31.095,40.469c0,23.079,18.747,41.956,41.956,41.956
	c-0.323,0.065,0,0,0.065,0c10.343,0.84,20.105,9.438,20.105,20.04c0,11.119-9.051,20.234-20.234,20.234
	c-11.119,0-20.234-9.051-20.234-20.234c0-6.012-4.848-10.925-10.925-10.925c-6.077,0-10.925,4.848-10.925,10.925
	c0,19.394,13.188,35.62,31.095,40.469v9.438c0,6.012,4.848,10.925,10.925,10.925c6.077,0,10.925-4.848,10.925-10.925v-9.438
	c17.842-4.784,31.095-21.075,31.095-40.469c0-23.079-20.428-41.826-43.507-41.826c0.323-0.065,0,0-0.065,0
	c-10.343-0.84-18.554-9.568-18.554-20.17C85.754,100.267,94.869,91.152,105.988,91.152z"/>
<path style="fill:#FFC10D;" d="M247.628,141.188l20.17,49.584l5.172-17.002c1.099-3.491,3.814-6.206,7.176-7.176l17.002-5.172
	L247.628,141.188z"/>
<g>
	<path style="fill:#194F82;" d="M333.673,152.76l-101.754-41.438c-4.008-1.616-8.663-0.711-11.766,2.392s-4.008,7.758-2.392,11.766
		L259.2,227.232c3.685,7.434,10.343,6.723,10.537,6.723c4.59-0.259,8.598-3.232,9.891-7.628l8.792-28.897l16.614,16.614
		c4.267,4.267,11.119,4.267,15.386,0c4.267-4.267,4.267-11.119,0-15.386l-16.614-16.614l28.897-8.792
		c4.396-1.293,7.499-5.301,7.628-9.891C340.655,158.707,337.939,154.44,333.673,152.76z M273.034,173.77l-5.172,17.002
		l-20.17-49.584l49.584,20.17l-17.002,5.172C276.849,167.628,274.133,170.279,273.034,173.77z"/>
	<path style="fill:#194F82;" d="M231.596,92.121c6.012,0,10.925-4.848,10.925-10.925V65.745c0-6.012-4.848-10.925-10.925-10.925
		c-6.012,0-10.925,4.848-10.925,10.925v15.451C220.735,87.208,225.584,92.121,231.596,92.121z"/>
	<path style="fill:#194F82;" d="M201.729,121.988c0-6.012-4.848-10.925-10.925-10.925h-15.451c-6.012,0-10.925,4.848-10.925,10.925
		c0,6.012,4.848,10.925,10.925,10.925h15.451C196.816,132.848,201.729,128.065,201.729,121.988z"/>
	<path style="fill:#194F82;" d="M199.531,74.537c-4.267-4.267-11.119-4.267-15.386,0s-4.267,11.119,0,15.386l10.925,10.925
		c4.267,4.267,11.119,4.267,15.386,0s4.267-11.119,0-15.386L199.531,74.537z"/>
	<path style="fill:#194F82;" d="M195.071,143.192l-10.925,10.925c-4.267,4.267-4.267,11.119,0,15.386
		c4.267,4.267,11.119,4.267,15.386,0l10.925-10.925c4.267-4.267,4.267-11.119,0-15.386
		C206.19,138.925,199.337,138.925,195.071,143.192z"/>
	<path style="fill:#194F82;" d="M268.057,100.848l10.925-10.925c4.267-4.267,4.267-11.119,0-15.386s-11.119-4.267-15.386,0
		l-10.925,10.925c-4.267,4.267-4.267,11.119,0,15.386C256.937,105.115,263.855,105.115,268.057,100.848z"/>
	<path style="fill:#194F82;" d="M359.208,0H33.39C15.483,0,0.873,14.61,0.873,32.582V312.76c0,17.907,14.61,32.582,32.582,32.582
		h92.509v25.471H92.283c-6.012,0-10.925,4.848-10.925,10.925s4.848,10.925,10.925,10.925h208.032
		c6.012,0,10.925-4.848,10.925-10.925c0-6.012-4.848-10.925-10.925-10.925h-33.681v-25.471h92.574
		c17.907,0,32.582-14.61,32.582-32.582V32.582C391.725,14.61,377.115,0,359.208,0z M370.004,312.824
		c0,5.948-4.849,10.925-10.925,10.925H33.39c-5.947,0-10.925-4.848-10.925-10.925v-42.99h347.41v42.99H370.004z M22.594,32.582
		c0-6.012,4.848-10.925,10.925-10.925h325.689c6.012,0,10.925,4.848,10.925,10.925v215.531H22.594V32.582z M244.913,370.812h-97.228
		v-25.471h97.228V370.812L244.913,370.812z"/>
	<path style="fill:#194F82;" d="M188.929,307.329h14.675c6.012,0,10.925-4.848,10.925-10.925s-4.848-10.925-10.925-10.925h-14.675
		c-6.012,0-10.925,4.848-10.925,10.925C178.069,302.545,182.917,307.329,188.929,307.329z"/>
</g>
</svg>